<?xml version="1.0" encoding="UTF-8" standalone="no"?>
<svg
   xmlns:dc="http://purl.org/dc/elements/1.1/"
   xmlns:cc="http://creativecommons.org/ns#"
   xmlns:rdf="http://www.w3.org/1999/02/22-rdf-syntax-ns#"
   xmlns:svg="http://www.w3.org/2000/svg"
   xmlns="http://www.w3.org/2000/svg"
   xmlns:sodipodi="http://sodipodi.sourceforge.net/DTD/sodipodi-0.dtd"
   xmlns:inkscape="http://www.inkscape.org/namespaces/inkscape"
   version="1.1"
   id="svg833"
   width="1288.1013"
   height="1288.1013"
   viewBox="0 0 1288.1013 1288.1013"
   sodipodi:docname="artistas.svg"
   inkscape:version="1.0.1 (3bc2e813f5, 2020-09-07)">
  <metadata
     id="metadata839">
    <rdf:RDF>
      <cc:Work
         rdf:about="">
        <dc:format>image/svg+xml</dc:format>
        <dc:type
           rdf:resource="http://purl.org/dc/dcmitype/StillImage" />
        <dc:title />
      </cc:Work>
    </rdf:RDF>
  </metadata>
  <defs
     id="defs837" />
  <sodipodi:namedview
     pagecolor="#ffffff"
     bordercolor="#666666"
     borderopacity="1"
     objecttolerance="10"
     gridtolerance="10"
     guidetolerance="10"
     inkscape:pageopacity="0"
     inkscape:pageshadow="2"
     inkscape:window-width="1920"
     inkscape:window-height="1017"
     id="namedview835"
     showgrid="false"
     inkscape:zoom="0.32101512"
     inkscape:cx="687.61506"
     inkscape:cy="745.90308"
     inkscape:window-x="-8"
     inkscape:window-y="-8"
     inkscape:window-maximized="1"
     inkscape:current-layer="g841"
     inkscape:document-rotation="0" />
  <g
     inkscape:groupmode="layer"
     inkscape:label="Image"
     id="g841">
    <ellipse
       style="fill:#9932cc;fill-opacity:1;stroke-width:34.8535"
       id="path881"
       cx="651.05969"
       cy="655.7323"
       rx="635.48407"
       ry="643.27185" />
    <path
       style="fill:#000000;stroke:#000000;stroke-width:1px;stroke-linecap:butt;stroke-linejoin:miter;stroke-opacity:1"
       d="M 926.74764,451.69209 C 835.37462,390.9475 760.09072,291.57338 652.61725,269.45768 c -96.15409,-19.78642 -204.68136,3.8864 -289.70598,52.95701 -74.96564,43.26523 -136.08408,117.44058 -168.21637,197.80999 -38.32592,95.86093 -47.21629,210.41517 -17.32211,309.23082 22.55066,74.54155 75.58879,143.39948 140.18031,186.9071 47.21027,31.7999 108.47977,49.4471 165.10126,43.6117 32.33494,-3.3324 63.77702,-21.0967 87.2233,-43.6117 24.80641,-23.82114 40.19763,-57.32643 49.84189,-90.33844 11.60366,-39.71901 -8.93824,-104.89971 7.97676,-123.88129 5.16012,-14.24961 32.78197,-27.17013 51.66668,-24.54302 11.50984,1.60118 26.21127,22.98546 26.21127,22.98546 0,0 -67.25521,85.05667 -71.64772,136.1528 -1.58907,18.48501 0.83918,44.08415 17.13315,52.95695 21.23546,11.56374 49.47672,-6.0514 70.09016,-18.69065 60.30843,-36.97837 83.7534,-117.43324 141.73787,-157.95863 11.45838,-8.00827 27.15959,-8.04745 38.93898,-15.57559 21.66277,-13.84455 40.62653,-32.40509 56.07212,-52.957 12.27637,-16.33495 21.96493,-35.00352 28.03606,-54.51457 4.8216,-15.49538 1.16066,-32.8683 6.23024,-48.28433 13.35878,-40.62265 62.30238,-112.14425 62.30238,-112.14425 1.503,4.50909 78.9868,-39.39647 87.2233,-101.24134 4.3887,-32.95319 5.5619,-67.59198 -3.1151,-99.68378 -4.7149,-17.43809 -25.8334,-47.63917 -25.8334,-47.63917 0,0 -25.787,25.70178 -41.1416,35.1787 -18.2163,11.2432 -40.3076,14.83135 -59.1873,24.92095 -25.78103,13.77777 -56.87988,24.03626 -73.20529,48.28433 -11.82799,17.56807 -12.46047,62.30236 -12.46047,62.30236 z"
       id="path848"
       sodipodi:nodetypes="caaaaaaaacacaaaaaaaacsacaaac" />
    <path
       style="fill:#9932cc;stroke:#000000;stroke-width:1px;stroke-linecap:butt;stroke-linejoin:miter;stroke-opacity:1;fill-opacity:1"
       d="m 956.48303,492.34056 c 14.56528,-13.94061 60.25977,15.30999 50.66257,33.04081 -120.75411,223.09317 -324.00706,431.51381 -311.68502,404.19932 -18.31216,3.06774 136.96799,-318.506 261.02245,-437.24013 z"
       id="path850"
       sodipodi:nodetypes="sscs" />
    <ellipse
       style="fill:#9932cc;stroke-width:43.2303;fill-opacity:1"
       id="path852"
       cx="521.51556"
       cy="437.54428"
       rx="61.412617"
       ry="59.317043" />
    <ellipse
       style="fill:#9932cc;stroke-width:43.2303;fill-opacity:1"
       id="path852-7"
       cx="350.45081"
       cy="565.39392"
       rx="61.412617"
       ry="59.317043" />
    <ellipse
       style="fill:#9932cc;stroke-width:43.2303;fill-opacity:1"
       id="path852-76"
       cx="333.31763"
       cy="781.89465"
       rx="61.412617"
       ry="59.317043" />
    <ellipse
       style="fill:#9932cc;stroke-width:43.2303;fill-opacity:1"
       id="path852-3"
       cx="741.39807"
       cy="487.51596"
       rx="61.412617"
       ry="59.317043" />
  </g>
</svg>
